<mxfile host="Electron" agent="Mozilla/5.0 (Windows NT 10.0; Win64; x64) AppleWebKit/537.36 (KHTML, like Gecko) draw.io/26.2.2 Chrome/134.0.6998.178 Electron/35.1.2 Safari/537.36" version="26.2.2">
  <diagram name="Page-1" id="9f46799a-70d6-7492-0946-bef42562c5a5">
    <mxGraphModel dx="985" dy="580" grid="1" gridSize="10" guides="1" tooltips="1" connect="1" arrows="1" fold="1" page="1" pageScale="1" pageWidth="1100" pageHeight="850" background="none" math="0" shadow="0">
      <root>
        <mxCell id="0" />
        <mxCell id="1" parent="0" />
        <mxCell id="bclbStlkx4myOngpw27n-44" style="edgeStyle=orthogonalEdgeStyle;rounded=0;orthogonalLoop=1;jettySize=auto;html=1;exitX=0;exitY=0;exitDx=0;exitDy=0;entryX=0;entryY=0.5;entryDx=0;entryDy=0;endArrow=diamondThin;endFill=1;endSize=16;" edge="1" parent="1" source="78961159f06e98e8-17" target="bclbStlkx4myOngpw27n-17">
          <mxGeometry relative="1" as="geometry">
            <Array as="points">
              <mxPoint x="480" y="70" />
              <mxPoint x="450" y="70" />
              <mxPoint x="450" y="411" />
            </Array>
          </mxGeometry>
        </mxCell>
        <mxCell id="bclbStlkx4myOngpw27n-45" style="edgeStyle=orthogonalEdgeStyle;rounded=0;orthogonalLoop=1;jettySize=auto;html=1;exitX=0;exitY=0;exitDx=0;exitDy=0;entryX=1;entryY=0.5;entryDx=0;entryDy=0;endArrow=diamondThin;endFill=1;endSize=16;" edge="1" parent="1" source="78961159f06e98e8-17" target="bclbStlkx4myOngpw27n-9">
          <mxGeometry relative="1" as="geometry">
            <Array as="points">
              <mxPoint x="420" y="60" />
              <mxPoint x="420" y="301" />
            </Array>
          </mxGeometry>
        </mxCell>
        <mxCell id="78961159f06e98e8-17" value="User" style="swimlane;html=1;fontStyle=1;align=center;verticalAlign=top;childLayout=stackLayout;horizontal=1;startSize=26;horizontalStack=0;resizeParent=1;resizeLast=0;collapsible=1;marginBottom=0;swimlaneFillColor=#ffffff;rounded=0;shadow=0;comic=0;labelBackgroundColor=none;strokeWidth=1;fillColor=none;fontFamily=Verdana;fontSize=12" parent="1" vertex="1">
          <mxGeometry x="480" y="60" width="240" height="190" as="geometry" />
        </mxCell>
        <mxCell id="78961159f06e98e8-26" value="+ id: Long" style="text;html=1;strokeColor=none;fillColor=none;align=left;verticalAlign=top;spacingLeft=4;spacingRight=4;whiteSpace=wrap;overflow=hidden;rotatable=0;points=[[0,0.5],[1,0.5]];portConstraint=eastwest;" parent="78961159f06e98e8-17" vertex="1">
          <mxGeometry y="26" width="240" height="26" as="geometry" />
        </mxCell>
        <mxCell id="78961159f06e98e8-24" value="+ email: String" style="text;html=1;strokeColor=none;fillColor=none;align=left;verticalAlign=top;spacingLeft=4;spacingRight=4;whiteSpace=wrap;overflow=hidden;rotatable=0;points=[[0,0.5],[1,0.5]];portConstraint=eastwest;" parent="78961159f06e98e8-17" vertex="1">
          <mxGeometry y="52" width="240" height="26" as="geometry" />
        </mxCell>
        <mxCell id="bclbStlkx4myOngpw27n-2" value="+ passwordHash: String" style="text;strokeColor=none;fillColor=none;align=left;verticalAlign=top;spacingLeft=4;spacingRight=4;overflow=hidden;rotatable=0;points=[[0,0.5],[1,0.5]];portConstraint=eastwest;whiteSpace=wrap;html=1;" vertex="1" parent="78961159f06e98e8-17">
          <mxGeometry y="78" width="240" height="26" as="geometry" />
        </mxCell>
        <mxCell id="bclbStlkx4myOngpw27n-3" value="+ receivedFriendRequests: List&amp;lt;User&amp;gt;" style="text;strokeColor=none;fillColor=none;align=left;verticalAlign=top;spacingLeft=4;spacingRight=4;overflow=hidden;rotatable=0;points=[[0,0.5],[1,0.5]];portConstraint=eastwest;whiteSpace=wrap;html=1;" vertex="1" parent="78961159f06e98e8-17">
          <mxGeometry y="104" width="240" height="26" as="geometry" />
        </mxCell>
        <mxCell id="bclbStlkx4myOngpw27n-4" value="+ friends: List&amp;lt;User&amp;gt;" style="text;strokeColor=none;fillColor=none;align=left;verticalAlign=top;spacingLeft=4;spacingRight=4;overflow=hidden;rotatable=0;points=[[0,0.5],[1,0.5]];portConstraint=eastwest;whiteSpace=wrap;html=1;" vertex="1" parent="78961159f06e98e8-17">
          <mxGeometry y="130" width="240" height="26" as="geometry" />
        </mxCell>
        <mxCell id="bclbStlkx4myOngpw27n-5" value="+ signedUpWithOAuth: boolean" style="text;strokeColor=none;fillColor=none;align=left;verticalAlign=top;spacingLeft=4;spacingRight=4;overflow=hidden;rotatable=0;points=[[0,0.5],[1,0.5]];portConstraint=eastwest;whiteSpace=wrap;html=1;" vertex="1" parent="78961159f06e98e8-17">
          <mxGeometry y="156" width="240" height="26" as="geometry" />
        </mxCell>
        <mxCell id="78961159f06e98e8-19" value="" style="line;html=1;strokeWidth=1;fillColor=none;align=left;verticalAlign=middle;spacingTop=-1;spacingLeft=3;spacingRight=3;rotatable=0;labelPosition=right;points=[];portConstraint=eastwest;" parent="78961159f06e98e8-17" vertex="1">
          <mxGeometry y="182" width="240" height="8" as="geometry" />
        </mxCell>
        <mxCell id="bclbStlkx4myOngpw27n-39" style="edgeStyle=orthogonalEdgeStyle;rounded=0;orthogonalLoop=1;jettySize=auto;html=1;exitX=1;exitY=0;exitDx=0;exitDy=0;entryX=1;entryY=0.5;entryDx=0;entryDy=0;endArrow=diamondThin;endFill=0;endSize=16;" edge="1" parent="78961159f06e98e8-17" source="78961159f06e98e8-17" target="bclbStlkx4myOngpw27n-3">
          <mxGeometry relative="1" as="geometry">
            <Array as="points">
              <mxPoint x="240" y="10" />
              <mxPoint x="270" y="10" />
              <mxPoint x="270" y="117" />
            </Array>
          </mxGeometry>
        </mxCell>
        <mxCell id="bclbStlkx4myOngpw27n-40" style="edgeStyle=orthogonalEdgeStyle;rounded=0;orthogonalLoop=1;jettySize=auto;html=1;exitX=1;exitY=0;exitDx=0;exitDy=0;entryX=1;entryY=0.5;entryDx=0;entryDy=0;endArrow=diamondThin;endFill=0;endSize=16;" edge="1" parent="78961159f06e98e8-17" source="78961159f06e98e8-17" target="bclbStlkx4myOngpw27n-4">
          <mxGeometry relative="1" as="geometry">
            <Array as="points">
              <mxPoint x="280" />
              <mxPoint x="280" y="143" />
            </Array>
          </mxGeometry>
        </mxCell>
        <mxCell id="bclbStlkx4myOngpw27n-6" value="Bid" style="swimlane;html=1;fontStyle=1;align=center;verticalAlign=top;childLayout=stackLayout;horizontal=1;startSize=26;horizontalStack=0;resizeParent=1;resizeLast=0;collapsible=1;marginBottom=0;swimlaneFillColor=#ffffff;rounded=0;shadow=0;comic=0;labelBackgroundColor=none;strokeWidth=1;fillColor=none;fontFamily=Verdana;fontSize=12" vertex="1" parent="1">
          <mxGeometry x="250" y="210" width="110" height="140" as="geometry" />
        </mxCell>
        <mxCell id="bclbStlkx4myOngpw27n-7" value="+ id: Long" style="text;html=1;strokeColor=none;fillColor=none;align=left;verticalAlign=top;spacingLeft=4;spacingRight=4;whiteSpace=wrap;overflow=hidden;rotatable=0;points=[[0,0.5],[1,0.5]];portConstraint=eastwest;" vertex="1" parent="bclbStlkx4myOngpw27n-6">
          <mxGeometry y="26" width="110" height="26" as="geometry" />
        </mxCell>
        <mxCell id="bclbStlkx4myOngpw27n-8" value="+ listing: Listing" style="text;html=1;strokeColor=none;fillColor=none;align=left;verticalAlign=top;spacingLeft=4;spacingRight=4;whiteSpace=wrap;overflow=hidden;rotatable=0;points=[[0,0.5],[1,0.5]];portConstraint=eastwest;" vertex="1" parent="bclbStlkx4myOngpw27n-6">
          <mxGeometry y="52" width="110" height="26" as="geometry" />
        </mxCell>
        <mxCell id="bclbStlkx4myOngpw27n-9" value="+ bidder: User" style="text;strokeColor=none;fillColor=none;align=left;verticalAlign=top;spacingLeft=4;spacingRight=4;overflow=hidden;rotatable=0;points=[[0,0.5],[1,0.5]];portConstraint=eastwest;whiteSpace=wrap;html=1;" vertex="1" parent="bclbStlkx4myOngpw27n-6">
          <mxGeometry y="78" width="110" height="26" as="geometry" />
        </mxCell>
        <mxCell id="bclbStlkx4myOngpw27n-10" value="+ price: Price" style="text;strokeColor=none;fillColor=none;align=left;verticalAlign=top;spacingLeft=4;spacingRight=4;overflow=hidden;rotatable=0;points=[[0,0.5],[1,0.5]];portConstraint=eastwest;whiteSpace=wrap;html=1;" vertex="1" parent="bclbStlkx4myOngpw27n-6">
          <mxGeometry y="104" width="110" height="26" as="geometry" />
        </mxCell>
        <mxCell id="bclbStlkx4myOngpw27n-13" value="" style="line;html=1;strokeWidth=1;fillColor=none;align=left;verticalAlign=middle;spacingTop=-1;spacingLeft=3;spacingRight=3;rotatable=0;labelPosition=right;points=[];portConstraint=eastwest;" vertex="1" parent="bclbStlkx4myOngpw27n-6">
          <mxGeometry y="130" width="110" height="8" as="geometry" />
        </mxCell>
        <mxCell id="bclbStlkx4myOngpw27n-43" style="edgeStyle=orthogonalEdgeStyle;rounded=0;orthogonalLoop=1;jettySize=auto;html=1;exitX=0.25;exitY=0;exitDx=0;exitDy=0;entryX=1;entryY=0.5;entryDx=0;entryDy=0;endArrow=diamondThin;endFill=1;endSize=16;" edge="1" parent="1" source="bclbStlkx4myOngpw27n-14" target="bclbStlkx4myOngpw27n-8">
          <mxGeometry relative="1" as="geometry" />
        </mxCell>
        <mxCell id="bclbStlkx4myOngpw27n-14" value="Listing" style="swimlane;html=1;fontStyle=1;align=center;verticalAlign=top;childLayout=stackLayout;horizontal=1;startSize=26;horizontalStack=0;resizeParent=1;resizeLast=0;collapsible=1;marginBottom=0;swimlaneFillColor=#ffffff;rounded=0;shadow=0;comic=0;labelBackgroundColor=none;strokeWidth=1;fillColor=none;fontFamily=Verdana;fontSize=12" vertex="1" parent="1">
          <mxGeometry x="480" y="320" width="110" height="140" as="geometry" />
        </mxCell>
        <mxCell id="bclbStlkx4myOngpw27n-15" value="+ id: Long" style="text;html=1;strokeColor=none;fillColor=none;align=left;verticalAlign=top;spacingLeft=4;spacingRight=4;whiteSpace=wrap;overflow=hidden;rotatable=0;points=[[0,0.5],[1,0.5]];portConstraint=eastwest;" vertex="1" parent="bclbStlkx4myOngpw27n-14">
          <mxGeometry y="26" width="110" height="26" as="geometry" />
        </mxCell>
        <mxCell id="bclbStlkx4myOngpw27n-16" value="+ title: String" style="text;html=1;strokeColor=none;fillColor=none;align=left;verticalAlign=top;spacingLeft=4;spacingRight=4;whiteSpace=wrap;overflow=hidden;rotatable=0;points=[[0,0.5],[1,0.5]];portConstraint=eastwest;" vertex="1" parent="bclbStlkx4myOngpw27n-14">
          <mxGeometry y="52" width="110" height="26" as="geometry" />
        </mxCell>
        <mxCell id="bclbStlkx4myOngpw27n-17" value="+ owner: User" style="text;strokeColor=none;fillColor=none;align=left;verticalAlign=top;spacingLeft=4;spacingRight=4;overflow=hidden;rotatable=0;points=[[0,0.5],[1,0.5]];portConstraint=eastwest;whiteSpace=wrap;html=1;" vertex="1" parent="bclbStlkx4myOngpw27n-14">
          <mxGeometry y="78" width="110" height="26" as="geometry" />
        </mxCell>
        <mxCell id="bclbStlkx4myOngpw27n-18" value="+ price: Price" style="text;strokeColor=none;fillColor=none;align=left;verticalAlign=top;spacingLeft=4;spacingRight=4;overflow=hidden;rotatable=0;points=[[0,0.5],[1,0.5]];portConstraint=eastwest;whiteSpace=wrap;html=1;" vertex="1" parent="bclbStlkx4myOngpw27n-14">
          <mxGeometry y="104" width="110" height="26" as="geometry" />
        </mxCell>
        <mxCell id="bclbStlkx4myOngpw27n-19" value="" style="line;html=1;strokeWidth=1;fillColor=none;align=left;verticalAlign=middle;spacingTop=-1;spacingLeft=3;spacingRight=3;rotatable=0;labelPosition=right;points=[];portConstraint=eastwest;" vertex="1" parent="bclbStlkx4myOngpw27n-14">
          <mxGeometry y="130" width="110" height="8" as="geometry" />
        </mxCell>
      </root>
    </mxGraphModel>
  </diagram>
</mxfile>
